<svg xmlns="http://www.w3.org/2000/svg" viewBox="0 0 84.96 84.96"><defs><style>.cls-1{fill:#2e383f;}.cls-2{fill:#fff;}</style></defs><g id="Layer_2" data-name="Layer 2"><g id="Layer_1-2" data-name="Layer 1"><circle class="cls-1" cx="42.48" cy="42.48" r="42.48"/><path class="cls-2" d="M42.47,36.43c-.17,0-.26.09-.35.09-1.92.35-3.06,1.75-2.62,3.33.35,1.31,2.62,2.27,4.11,1.75a4.43,4.43,0,0,0,3.07-3.69A5.44,5.44,0,0,0,45.19,33a3.67,3.67,0,0,0-2.28-.87,13.18,13.18,0,0,0-4.9.7,5.45,5.45,0,0,0-4,4.47,15.7,15.7,0,0,0-.17,5,6.21,6.21,0,0,0,5,5.08,14,14,0,0,0,7.79-.09,8,8,0,0,0,5.78-6.66c.79-4.46.35-8.58-3.22-11.91-1.49-1.38-3.07-2.63-4.65-3.85a13.57,13.57,0,0,1-4.37-5.08c-1.49-3.59-.46-6.74,1.74-9.63a5,5,0,0,1,1.67-1.58c-.18,1-.35,1.93-.53,2.8-.61,3.16-.26,6,2.54,8.06,2.28,1.75,4.56,3.5,6.75,5.26a15.76,15.76,0,0,1,5.78,12,17.54,17.54,0,0,1-1.22,8.5,12,12,0,0,1-6.59,6.34,23,23,0,0,1-9.37,1.22A13.66,13.66,0,0,1,34,50.53c-4.29-2.62-5.61-6.74-5.26-11.47a19,19,0,0,1,1-4.9,9.43,9.43,0,0,1,6.74-6A18.07,18.07,0,0,1,44,27.74c3.42.56,5.79,2.82,6.77,6.68a8.9,8.9,0,0,1-6.22,10.94A6.25,6.25,0,0,1,36.8,41a4.21,4.21,0,0,1,1.58-4.46,3.47,3.47,0,0,1,3.85-.61C42.12,35.91,42.39,36.08,42.47,36.43Z"/><path class="cls-2" d="M41.34,63a6.33,6.33,0,0,1-6.22,6.39A6.46,6.46,0,0,1,28.72,63a6.22,6.22,0,0,1,6.2-6.22h.13A6,6,0,0,1,41.34,63Zm-6.22,2.28a2.2,2.2,0,0,0,2.28-2.1v-.09a2.28,2.28,0,0,0-4.56,0h0A2.25,2.25,0,0,0,35.12,65.25Z"/><path class="cls-2" d="M60.34,56.66a6.08,6.08,0,0,1,6.23,5.91c0,.16,0,.32,0,.49a6.44,6.44,0,0,1-6.22,6.3A6.34,6.34,0,0,1,54,63a6.18,6.18,0,0,1,6-6.31ZM62.53,63a2.19,2.19,0,0,0-2.1-2.28h-.09A2.46,2.46,0,0,0,58,63a2.34,2.34,0,0,0,2.36,2.28A2.3,2.3,0,0,0,62.53,63Z"/><path class="cls-2" d="M48.88,65.07c-.08-.35-.52-.26-.7-.46a1.41,1.41,0,0,1-.61-1.49,1.14,1.14,0,0,1,1.14-1,17.37,17.37,0,0,1,3.06,0,1.76,1.76,0,0,1,1.49,1.38,4.14,4.14,0,0,1-2.62,5.44,6.34,6.34,0,0,1-7.45-2.28,6.25,6.25,0,0,1,.61-8.06,6.39,6.39,0,0,1,7.89-1c1.22.79,1.57,1.85,1.05,2.89s-1.58,1.32-3,.62c-1-.53-2-.7-2.89.26a2.15,2.15,0,0,0-.35,2.8A2,2,0,0,0,48.88,65.07Z"/><path class="cls-2" d="M21.81,65.6a3.4,3.4,0,0,0-.88-2.72,30.69,30.69,0,0,1-1.84-2.8,2,2,0,0,1,.52-2.89,2.07,2.07,0,0,1,2.89.7c1.31,1.75,1.31,1.75,2.63.09a2.07,2.07,0,1,1,3.44,2.27,9.1,9.1,0,0,1-1.05,1.49,6.28,6.28,0,0,0-1.69,4.91c.17,1.58-.7,2.54-1.93,2.45s-2-.87-2-2.54A3.43,3.43,0,0,1,21.81,65.6Z"/></g></g></svg>